<mxfile host="app.diagrams.net" agent="Mozilla/5.0 (Windows NT 10.0; Win64; x64) AppleWebKit/537.36 (KHTML, like Gecko) Chrome/128.0.0.0 YaBrowser/24.10.0.0 Safari/537.36" version="25.0.1">
  <diagram name="Страница — 1" id="5988pnU586D4e38y2khB">
    <mxGraphModel dx="1615" dy="872" grid="1" gridSize="10" guides="1" tooltips="1" connect="1" arrows="1" fold="1" page="1" pageScale="1" pageWidth="827" pageHeight="1169" math="0" shadow="0">
      <root>
        <mxCell id="0" />
        <mxCell id="1" parent="0" />
        <mxCell id="gg5_r9_ZKBa3pd0S8F4e-27" style="edgeStyle=orthogonalEdgeStyle;rounded=0;orthogonalLoop=1;jettySize=auto;html=1;entryX=0.5;entryY=0;entryDx=0;entryDy=0;" edge="1" parent="1" source="gg5_r9_ZKBa3pd0S8F4e-1" target="gg5_r9_ZKBa3pd0S8F4e-2">
          <mxGeometry relative="1" as="geometry" />
        </mxCell>
        <mxCell id="gg5_r9_ZKBa3pd0S8F4e-1" value="&lt;font style=&quot;font-size: 14px;&quot;&gt;Начало&lt;/font&gt;&lt;div&gt;&lt;font style=&quot;font-size: 14px;&quot;&gt;Запуск консоли&lt;/font&gt;&lt;/div&gt;" style="ellipse;whiteSpace=wrap;html=1;" vertex="1" parent="1">
          <mxGeometry x="318" y="100" width="196" height="60" as="geometry" />
        </mxCell>
        <mxCell id="gg5_r9_ZKBa3pd0S8F4e-6" style="edgeStyle=orthogonalEdgeStyle;rounded=0;orthogonalLoop=1;jettySize=auto;html=1;exitX=0.5;exitY=1;exitDx=0;exitDy=0;entryX=0.5;entryY=0;entryDx=0;entryDy=0;" edge="1" parent="1" source="gg5_r9_ZKBa3pd0S8F4e-2" target="gg5_r9_ZKBa3pd0S8F4e-4">
          <mxGeometry relative="1" as="geometry">
            <Array as="points">
              <mxPoint x="408" y="260" />
            </Array>
          </mxGeometry>
        </mxCell>
        <mxCell id="gg5_r9_ZKBa3pd0S8F4e-2" value="&lt;font style=&quot;font-size: 14px;&quot;&gt;Вывод позиций&lt;/font&gt;" style="shape=parallelogram;perimeter=parallelogramPerimeter;whiteSpace=wrap;html=1;fixedSize=1;" vertex="1" parent="1">
          <mxGeometry x="327.5" y="200" width="176.5" height="60" as="geometry" />
        </mxCell>
        <mxCell id="gg5_r9_ZKBa3pd0S8F4e-14" style="edgeStyle=orthogonalEdgeStyle;rounded=0;orthogonalLoop=1;jettySize=auto;html=1;exitX=0.5;exitY=1;exitDx=0;exitDy=0;entryX=0.5;entryY=0;entryDx=0;entryDy=0;" edge="1" parent="1" source="gg5_r9_ZKBa3pd0S8F4e-20" target="gg5_r9_ZKBa3pd0S8F4e-7">
          <mxGeometry relative="1" as="geometry" />
        </mxCell>
        <mxCell id="gg5_r9_ZKBa3pd0S8F4e-28" value="Да" style="edgeLabel;html=1;align=center;verticalAlign=middle;resizable=0;points=[];" vertex="1" connectable="0" parent="gg5_r9_ZKBa3pd0S8F4e-14">
          <mxGeometry x="-0.2089" y="-2" relative="1" as="geometry">
            <mxPoint as="offset" />
          </mxGeometry>
        </mxCell>
        <mxCell id="gg5_r9_ZKBa3pd0S8F4e-4" value="&lt;font style=&quot;font-size: 14px;&quot;&gt;Ввод номера&lt;/font&gt;" style="shape=parallelogram;perimeter=parallelogramPerimeter;whiteSpace=wrap;html=1;fixedSize=1;" vertex="1" parent="1">
          <mxGeometry x="318" y="310" width="180" height="60" as="geometry" />
        </mxCell>
        <mxCell id="gg5_r9_ZKBa3pd0S8F4e-7" value="&lt;font style=&quot;font-size: 14px;&quot;&gt;Пицца собирается&lt;/font&gt;" style="shape=parallelogram;perimeter=parallelogramPerimeter;whiteSpace=wrap;html=1;fixedSize=1;" vertex="1" parent="1">
          <mxGeometry x="318" y="600" width="180" height="60" as="geometry" />
        </mxCell>
        <mxCell id="gg5_r9_ZKBa3pd0S8F4e-16" style="edgeStyle=orthogonalEdgeStyle;rounded=0;orthogonalLoop=1;jettySize=auto;html=1;exitX=0.5;exitY=1;exitDx=0;exitDy=0;entryX=0.5;entryY=0;entryDx=0;entryDy=0;" edge="1" parent="1" source="gg5_r9_ZKBa3pd0S8F4e-10" target="gg5_r9_ZKBa3pd0S8F4e-11">
          <mxGeometry relative="1" as="geometry" />
        </mxCell>
        <mxCell id="gg5_r9_ZKBa3pd0S8F4e-10" value="&lt;font style=&quot;font-size: 14px;&quot;&gt;Пицца запекается&lt;/font&gt;" style="shape=parallelogram;perimeter=parallelogramPerimeter;whiteSpace=wrap;html=1;fixedSize=1;" vertex="1" parent="1">
          <mxGeometry x="320" y="690" width="184" height="60" as="geometry" />
        </mxCell>
        <mxCell id="gg5_r9_ZKBa3pd0S8F4e-17" style="edgeStyle=orthogonalEdgeStyle;rounded=0;orthogonalLoop=1;jettySize=auto;html=1;exitX=0.5;exitY=1;exitDx=0;exitDy=0;entryX=0.5;entryY=0;entryDx=0;entryDy=0;" edge="1" parent="1">
          <mxGeometry relative="1" as="geometry">
            <mxPoint x="407.49" y="850" as="sourcePoint" />
            <mxPoint x="408.49" y="920" as="targetPoint" />
          </mxGeometry>
        </mxCell>
        <mxCell id="gg5_r9_ZKBa3pd0S8F4e-11" value="&lt;font style=&quot;font-size: 14px;&quot;&gt;Пицца упаковывается&lt;/font&gt;" style="shape=parallelogram;perimeter=parallelogramPerimeter;whiteSpace=wrap;html=1;fixedSize=1;" vertex="1" parent="1">
          <mxGeometry x="320.5" y="790" width="184" height="60" as="geometry" />
        </mxCell>
        <mxCell id="gg5_r9_ZKBa3pd0S8F4e-19" style="edgeStyle=orthogonalEdgeStyle;rounded=0;orthogonalLoop=1;jettySize=auto;html=1;entryX=0;entryY=0.5;entryDx=0;entryDy=0;" edge="1" parent="1" source="gg5_r9_ZKBa3pd0S8F4e-12" target="gg5_r9_ZKBa3pd0S8F4e-2">
          <mxGeometry relative="1" as="geometry">
            <Array as="points">
              <mxPoint x="220" y="950" />
              <mxPoint x="220" y="230" />
            </Array>
          </mxGeometry>
        </mxCell>
        <mxCell id="gg5_r9_ZKBa3pd0S8F4e-12" value="&lt;font style=&quot;font-size: 14px;&quot;&gt;Заберите пиццу&lt;/font&gt;" style="shape=parallelogram;perimeter=parallelogramPerimeter;whiteSpace=wrap;html=1;fixedSize=1;" vertex="1" parent="1">
          <mxGeometry x="323" y="920" width="181" height="60" as="geometry" />
        </mxCell>
        <mxCell id="gg5_r9_ZKBa3pd0S8F4e-24" value="" style="edgeStyle=orthogonalEdgeStyle;rounded=0;orthogonalLoop=1;jettySize=auto;html=1;exitX=0.5;exitY=1;exitDx=0;exitDy=0;entryX=0.5;entryY=0;entryDx=0;entryDy=0;" edge="1" parent="1" source="gg5_r9_ZKBa3pd0S8F4e-4" target="gg5_r9_ZKBa3pd0S8F4e-20">
          <mxGeometry relative="1" as="geometry">
            <mxPoint x="417" y="360" as="sourcePoint" />
            <mxPoint x="411" y="490" as="targetPoint" />
          </mxGeometry>
        </mxCell>
        <mxCell id="gg5_r9_ZKBa3pd0S8F4e-32" style="edgeStyle=orthogonalEdgeStyle;rounded=0;orthogonalLoop=1;jettySize=auto;html=1;entryX=0;entryY=0.5;entryDx=0;entryDy=0;" edge="1" parent="1" source="gg5_r9_ZKBa3pd0S8F4e-20" target="gg5_r9_ZKBa3pd0S8F4e-31">
          <mxGeometry relative="1" as="geometry" />
        </mxCell>
        <mxCell id="gg5_r9_ZKBa3pd0S8F4e-34" value="Нет" style="edgeLabel;html=1;align=center;verticalAlign=middle;resizable=0;points=[];" vertex="1" connectable="0" parent="gg5_r9_ZKBa3pd0S8F4e-32">
          <mxGeometry x="-0.1788" y="-2" relative="1" as="geometry">
            <mxPoint as="offset" />
          </mxGeometry>
        </mxCell>
        <mxCell id="gg5_r9_ZKBa3pd0S8F4e-20" value="&lt;font style=&quot;font-size: 14px;&quot;&gt;Корректный ли&lt;/font&gt;&lt;div&gt;&lt;font style=&quot;font-size: 14px;&quot;&gt;ввод?&lt;/font&gt;&lt;/div&gt;" style="rhombus;whiteSpace=wrap;html=1;" vertex="1" parent="1">
          <mxGeometry x="336.5" y="400" width="143" height="130" as="geometry" />
        </mxCell>
        <mxCell id="gg5_r9_ZKBa3pd0S8F4e-25" style="edgeStyle=orthogonalEdgeStyle;rounded=0;orthogonalLoop=1;jettySize=auto;html=1;entryX=0.482;entryY=0.004;entryDx=0;entryDy=0;entryPerimeter=0;" edge="1" parent="1" source="gg5_r9_ZKBa3pd0S8F4e-7" target="gg5_r9_ZKBa3pd0S8F4e-10">
          <mxGeometry relative="1" as="geometry" />
        </mxCell>
        <mxCell id="gg5_r9_ZKBa3pd0S8F4e-33" style="edgeStyle=orthogonalEdgeStyle;rounded=0;orthogonalLoop=1;jettySize=auto;html=1;entryX=1;entryY=0.5;entryDx=0;entryDy=0;" edge="1" parent="1" source="gg5_r9_ZKBa3pd0S8F4e-31" target="gg5_r9_ZKBa3pd0S8F4e-4">
          <mxGeometry relative="1" as="geometry">
            <mxPoint x="630" y="350" as="targetPoint" />
            <Array as="points">
              <mxPoint x="640" y="340" />
            </Array>
          </mxGeometry>
        </mxCell>
        <mxCell id="gg5_r9_ZKBa3pd0S8F4e-31" value="Вывод сообщения&lt;div&gt;не корректный&lt;/div&gt;" style="shape=parallelogram;perimeter=parallelogramPerimeter;whiteSpace=wrap;html=1;fixedSize=1;" vertex="1" parent="1">
          <mxGeometry x="550" y="435" width="160" height="60" as="geometry" />
        </mxCell>
      </root>
    </mxGraphModel>
  </diagram>
</mxfile>
